<svg width="30" height="27" viewBox="0 0 30 27" fill="none" xmlns="http://www.w3.org/2000/svg">
    <path
        d="M14.847 15.8097C16.2737 15.8097 17.4303 14.6531 17.4303 13.2263C17.4303 11.7996 16.2737 10.643 14.847 10.643C13.4203 10.643 12.2637 11.7996 12.2637 13.2263C12.2637 14.6531 13.4203 15.8097 14.847 15.8097Z"
        fill="#00D8FF" />
    <path fill-rule="evenodd" clip-rule="evenodd"
        d="M14.8475 7.97394C18.3159 7.97394 21.5381 8.47163 23.9675 9.30801C26.8947 10.3158 28.6944 11.8432 28.6944 13.2264C28.6944 14.6677 26.7871 16.2905 23.6437 17.3319C21.2672 18.1193 18.1399 18.5303 14.8475 18.5303C11.4718 18.5303 8.27522 18.1445 5.87196 17.3233C2.83141 16.284 1.00006 14.6403 1.00006 13.2264C1.00006 11.8545 2.71844 10.3388 5.60445 9.33257C8.04298 8.48239 11.3447 7.97394 14.847 7.97394H14.8475Z"
        stroke="#00D8FF" stroke-width="1.23587" />
    <path fill-rule="evenodd" clip-rule="evenodd"
        d="M10.2755 10.6153C12.0083 7.61067 14.049 5.06807 15.9872 3.38131C18.3225 1.34903 20.5449 0.553126 21.743 1.24403C22.9916 1.96408 23.4445 4.42712 22.7763 7.67035C22.2717 10.1224 21.065 13.0367 19.4201 15.8889C17.7337 18.8132 15.8026 21.3895 13.8908 23.0606C11.4716 25.1754 9.13269 25.9407 7.90789 25.2344C6.7194 24.5495 6.26491 22.3033 6.83505 19.3005C7.31679 16.7634 8.52573 13.6492 10.2749 10.6152L10.2755 10.6153Z"
        stroke="#00D8FF" stroke-width="1.23587" />
    <path fill-rule="evenodd" clip-rule="evenodd"
        d="M10.2787 15.8965C8.54097 12.8953 7.35788 9.85683 6.86405 7.33524C6.26959 4.29706 6.68989 1.97414 7.88694 1.28123C9.13434 0.559067 11.4944 1.39678 13.9705 3.59539C15.8426 5.25764 17.765 7.75806 19.4147 10.6076C21.106 13.529 22.3735 16.4888 22.8667 18.9797C23.4906 22.1318 22.9856 24.5402 21.7619 25.2486C20.5746 25.936 18.4019 25.2082 16.0852 23.2146C14.1277 21.5302 12.0335 18.9275 10.2787 15.8964V15.8965Z"
        stroke="#00D8FF" stroke-width="1.23587" />
</svg>