<svg width="263" height="235" viewBox="0 0 263 235" fill="none" xmlns="http://www.w3.org/2000/svg">
    <path
        d="M131.503 140.767C144.474 140.767 154.988 130.253 154.988 117.282C154.988 104.312 144.474 93.797 131.503 93.797C118.533 93.797 108.018 104.312 108.018 117.282C108.018 130.253 118.533 140.767 131.503 140.767Z"
        fill="#F5F5F5" />
    <path fill-rule="evenodd" clip-rule="evenodd"
        d="M131.508 69.5325C163.04 69.5325 192.332 74.057 214.419 81.6606C241.03 90.8221 257.391 104.709 257.391 117.283C257.391 130.386 240.051 145.138 211.475 154.607C189.87 161.764 161.44 165.501 131.508 165.501C100.819 165.501 71.7592 161.994 49.9111 154.528C22.2693 145.08 5.62036 130.136 5.62036 117.283C5.62036 104.811 21.2422 91.0313 47.4791 81.8839C69.6479 74.1549 99.6636 69.5325 131.504 69.5325H131.508Z"
        stroke="#F5F5F5" stroke-width="11.2354" />
    <path fill-rule="evenodd" clip-rule="evenodd"
        d="M89.9433 93.5445C105.696 66.2295 124.249 43.1146 141.869 27.7802C163.1 9.30461 183.303 2.06904 194.195 8.35007C205.547 14.8961 209.664 37.2877 203.589 66.7721C199.002 89.064 188.031 115.558 173.078 141.487C157.746 168.072 140.191 191.494 122.81 206.686C100.817 225.912 79.5544 232.869 68.4197 226.448C57.615 220.221 53.4832 199.801 58.6664 172.502C63.0459 149.437 74.0364 121.126 89.9382 93.5441L89.9433 93.5445Z"
        stroke="#F5F5F5" stroke-width="11.2354" />
    <path fill-rule="evenodd" clip-rule="evenodd"
        d="M89.9729 141.556C74.1755 114.272 63.42 86.6497 58.9305 63.7258C53.5263 36.1056 57.3472 14.9878 68.2296 8.6885C79.5698 2.12331 101.025 9.73901 123.536 29.7267C140.555 44.8383 158.032 67.5698 173.029 93.4747C188.404 120.034 199.928 146.941 204.411 169.586C210.084 198.242 205.492 220.138 194.368 226.577C183.574 232.826 163.822 226.21 142.76 208.086C124.965 192.773 105.926 169.112 89.9729 141.556V141.556Z"
        stroke="#F5F5F5" stroke-width="11.2354" />
</svg>